<svg xmlns="http://www.w3.org/2000/svg" width="76" height="76" fill="none"><path fill="url(#a)" fill-rule="evenodd" d="M52.8 11.071a8.55 8.55 0 0 1 12.092.084c6.78 6.874 11.071 16.353 11.071 26.826a8.55 8.55 0 1 1-17.1 0c0-5.714-2.33-10.95-6.146-14.818a8.55 8.55 0 0 1 .084-12.092" clip-rule="evenodd"/><path fill="url(#b)" fill-rule="evenodd" d="M29.432 8.55A8.55 8.55 0 0 1 37.982 0c10.473 0 19.952 4.291 26.826 11.071A8.55 8.55 0 0 1 52.8 23.246c-3.868-3.815-9.104-6.146-14.818-6.146a8.55 8.55 0 0 1-8.55-8.55" clip-rule="evenodd"/><path fill="url(#c)" fill-rule="evenodd" d="M0 37.981C0 17 16.999 0 37.981 0a8.55 8.55 0 0 1 0 17.1C26.443 17.1 17.1 26.443 17.1 37.981c0 5.714 2.33 10.95 6.146 14.82a8.55 8.55 0 0 1-12.175 12.007C4.291 57.934 0 48.455 0 37.981" clip-rule="evenodd"/><path fill="url(#d)" fill-rule="evenodd" d="M11.071 52.8a8.55 8.55 0 0 1 12.091-.083c3.869 3.815 9.105 6.146 14.82 6.146a8.55 8.55 0 0 1 0 17.1c-10.474 0-19.953-4.291-26.827-11.071A8.55 8.55 0 0 1 11.07 52.8" clip-rule="evenodd"/><path fill="url(#e)" fill-rule="evenodd" d="M67.413 29.431a8.55 8.55 0 0 1 8.55 8.55c0 20.983-16.998 37.982-37.981 37.982a8.55 8.55 0 0 1 0-17.1c11.538 0 20.881-9.343 20.881-20.882a8.55 8.55 0 0 1 8.55-8.55" clip-rule="evenodd"/><path fill="url(#f)" fill-rule="evenodd" d="M67.413 29.431a8.55 8.55 0 0 1 8.55 8.55v29.432a8.55 8.55 0 0 1-17.1 0V37.98a8.55 8.55 0 0 1 8.55-8.55" clip-rule="evenodd"/><g clip-path="url(#g)"><path fill="url(#h)" fill-rule="evenodd" d="M52.8 11.071a8.55 8.55 0 0 1 12.092.084c6.78 6.874 11.071 16.353 11.071 26.826a8.55 8.55 0 1 1-17.1 0c0-5.714-2.33-10.95-6.146-14.818a8.55 8.55 0 0 1 .084-12.092" clip-rule="evenodd"/></g><defs><linearGradient id="a" x1="62.7" x2="68.4" y1="22.8" y2="35.625" gradientUnits="userSpaceOnUse"><stop stop-color="#7E22CE"/><stop offset="1" stop-color="#8B5CF6"/></linearGradient><linearGradient id="b" x1="63.65" x2="42.275" y1="22.325" y2="8.55" gradientUnits="userSpaceOnUse"><stop stop-color="#EF4444"/><stop offset="1" stop-color="#DC2626"/></linearGradient><linearGradient id="c" x1="8.55" x2="12.825" y1="33.25" y2="58.9" gradientUnits="userSpaceOnUse"><stop stop-color="#22C55E"/><stop offset="1" stop-color="#15803D"/></linearGradient><linearGradient id="d" x1="11.4" x2="34.2" y1="52.725" y2="69.35" gradientUnits="userSpaceOnUse"><stop stop-color="#94A3B8"/><stop offset=".958" stop-color="#64748B"/><stop offset="1" stop-color="#64748B"/></linearGradient><linearGradient id="e" x1="67.45" x2="52.697" y1="52.66" y2="67.413" gradientUnits="userSpaceOnUse"><stop stop-color="#D97706"/><stop offset="1" stop-color="#FBBF24"/></linearGradient><linearGradient id="f" x1="69.35" x2="72.735" y1="129.2" y2="128.858" gradientUnits="userSpaceOnUse"><stop stop-color="#FBBF24"/><stop offset="1" stop-color="#FBBF24"/></linearGradient><linearGradient id="h" x1="62.7" x2="68.4" y1="22.8" y2="35.625" gradientUnits="userSpaceOnUse"><stop stop-color="#7E22CE"/><stop offset="1" stop-color="#8B5CF6"/></linearGradient><clipPath id="g"><path fill="#fff" d="M58.9 28.5H76v19H58.9z"/></clipPath></defs></svg>